<svg width="33" height="36" viewBox="0 0 33 36" fill="none" xmlns="http://www.w3.org/2000/svg">
<g clip-path="url(#clip0_270_6407)">
<path d="M33 18C33 8.05894 25.6126 0 16.5 0C7.38736 0 0 8.0588 0 18C0 26.9842 6.03384 34.431 13.9219 35.7813V23.2031H9.73242V18H13.9219V14.0344C13.9219 9.52312 16.3853 7.03125 20.1541 7.03125C21.9594 7.03125 23.8477 7.38281 23.8477 7.38281V11.8125H21.7671C19.7172 11.8125 19.0781 13.2 19.0781 14.6236V18H23.6543L22.9228 23.2031H19.0781V35.7813C26.9662 34.431 33 26.9844 33 18Z" fill="#64C0B7"/>
<path d="M22.6005 23.2031L23.332 18H18.7559V14.6236C18.7559 13.1999 19.3951 11.8125 21.4448 11.8125H23.5254V7.38281C23.5254 7.38281 21.6372 7.03125 19.8318 7.03125C16.063 7.03125 13.5996 9.52313 13.5996 14.0344V18H9.41016V23.2031H13.5996V35.7813C14.4525 35.9271 15.3145 36.0002 16.1777 36C17.041 36.0003 17.903 35.9272 18.7559 35.7813V23.2031H22.6005Z" fill="white"/>
</g>
<defs>
<clipPath id="clip0_270_6407">
<rect width="33" height="36" fill="white"/>
</clipPath>
</defs>
</svg>
