<svg width="32" height="32" viewBox="0 0 32 32" fill="none" xmlns="http://www.w3.org/2000/svg">
<g clip-path="url(#clip0_270_6410)">
<path d="M32 3.89677C30.8017 4.54699 29.5307 4.9738 28.2292 5.16299C29.5849 4.16778 30.6257 2.59181 31.1159 0.714072C29.8272 1.65078 28.4173 2.31075 26.947 2.66546C25.7494 1.10267 24.0432 0.125977 22.1549 0.125977C18.5291 0.125977 15.5895 3.72651 15.5895 8.16732C15.5895 8.79767 15.6476 9.41133 15.7595 10C10.3032 9.66458 5.46575 6.4632 2.22762 1.59798C1.66262 2.78565 1.33888 4.16716 1.33888 5.64069C1.33888 8.43067 2.498 10.8919 4.2595 12.3341C3.21694 12.2941 2.19731 11.9491 1.28575 11.3281C1.28537 11.3618 1.28537 11.3955 1.28537 11.4293C1.28537 15.3255 3.54837 18.5757 6.55162 19.3145C5.58486 19.6365 4.57079 19.6837 3.58687 19.4523C4.42225 22.6471 6.84688 24.9719 9.71963 25.037C7.47275 27.1937 4.64188 28.4794 1.56613 28.4794C1.03613 28.4794 0.513625 28.4412 0 28.367C2.90538 30.6486 6.35625 31.9799 10.0638 31.9799C22.1396 31.9799 28.743 19.7264 28.743 9.09991C28.743 8.75112 28.7368 8.40433 28.724 8.05953C30.0093 6.92144 31.1186 5.5118 32 3.89677Z" fill="#64C0B7"/>
</g>
<defs>
<clipPath id="clip0_270_6410">
<rect width="32" height="32" fill="white"/>
</clipPath>
</defs>
</svg>
