<svg width="18" height="18" viewBox="0 0 18 18" fill="none" xmlns="http://www.w3.org/2000/svg">
<path d="M13.6788 12.8053L17.3333 16.459L16.126 17.6663L12.4723 14.0118C11.1128 15.1016 9.42181 15.6944 7.67943 15.6919C3.44039 15.6919 0 12.2515 0 8.01244C0 3.77339 3.44039 0.333008 7.67943 0.333008C11.9185 0.333008 15.3589 3.77339 15.3589 8.01244C15.3613 9.75482 14.7686 11.4458 13.6788 12.8053ZM11.9671 12.1721C13.05 11.0585 13.6548 9.56576 13.6523 8.01244C13.6523 4.71284 10.979 2.03955 7.67943 2.03955C4.37984 2.03955 1.70654 4.71284 1.70654 8.01244C1.70654 11.312 4.37984 13.9853 7.67943 13.9853C9.23275 13.9878 10.7255 13.383 11.8391 12.3001L11.9671 12.1721Z" fill="#999999"/>
</svg>
