<svg width="15" height="8" viewBox="0 0 15 8" fill="none" xmlns="http://www.w3.org/2000/svg">
<path d="M14.6009 1.95072C14.6014 2.10012 14.5684 2.24773 14.5044 2.3827C14.4403 2.51768 14.3469 2.6366 14.2309 2.73072L8.23086 7.56072C8.05193 7.7078 7.82749 7.78821 7.59586 7.78821C7.36424 7.78821 7.13979 7.7078 6.96086 7.56072L0.960862 2.56072C0.756645 2.39098 0.628221 2.14707 0.603841 1.88264C0.579461 1.61822 0.661123 1.35494 0.830862 1.15072C1.0006 0.946504 1.24451 0.818079 1.50894 0.7937C1.77336 0.76932 2.03664 0.850981 2.24086 1.02072L7.60086 5.49072L12.9609 1.17072C13.1076 1.04844 13.2864 0.97076 13.4759 0.946881C13.6655 0.923001 13.8579 0.953918 14.0304 1.03597C14.203 1.11803 14.3484 1.24779 14.4495 1.4099C14.5506 1.57201 14.6031 1.75969 14.6009 1.95072Z" fill="black"/>
</svg>
