<svg width="23" height="23" viewBox="0 0 23 23" fill="none" xmlns="http://www.w3.org/2000/svg">
<path d="M9.58171 5.75033H13.415C13.415 5.24199 13.2131 4.75448 12.8537 4.39504C12.4942 4.03559 12.0067 3.83366 11.4984 3.83366C10.99 3.83366 10.5025 4.03559 10.1431 4.39504C9.78364 4.75448 9.58171 5.24199 9.58171 5.75033ZM7.66504 5.75033C7.66504 4.73366 8.06891 3.75864 8.7878 3.03975C9.50669 2.32086 10.4817 1.91699 11.4984 1.91699C12.515 1.91699 13.4901 2.32086 14.2089 3.03975C14.9278 3.75864 15.3317 4.73366 15.3317 5.75033H20.1234C20.3775 5.75033 20.6213 5.85129 20.801 6.03102C20.9807 6.21074 21.0817 6.45449 21.0817 6.70866C21.0817 6.96282 20.9807 7.20658 20.801 7.3863C20.6213 7.56603 20.3775 7.66699 20.1234 7.66699H19.2781L18.429 17.5762C18.3474 18.533 17.9096 19.4244 17.2022 20.0739C16.4949 20.7234 15.5695 21.0838 14.6091 21.0837H8.38762C7.42729 21.0838 6.50189 20.7234 5.79452 20.0739C5.08714 19.4244 4.64933 18.533 4.56771 17.5762L3.71862 7.66699H2.87337C2.61921 7.66699 2.37545 7.56603 2.19573 7.3863C2.01601 7.20658 1.91504 6.96282 1.91504 6.70866C1.91504 6.45449 2.01601 6.21074 2.19573 6.03102C2.37545 5.85129 2.61921 5.75033 2.87337 5.75033H7.66504ZM14.3734 11.5003C14.3734 11.2462 14.2724 11.0024 14.0927 10.8227C13.913 10.643 13.6692 10.542 13.415 10.542C13.1609 10.542 12.9171 10.643 12.7374 10.8227C12.5577 11.0024 12.4567 11.2462 12.4567 11.5003V15.3337C12.4567 15.5878 12.5577 15.8316 12.7374 16.0113C12.9171 16.191 13.1609 16.292 13.415 16.292C13.6692 16.292 13.913 16.191 14.0927 16.0113C14.2724 15.8316 14.3734 15.5878 14.3734 15.3337V11.5003ZM9.58171 10.542C9.83587 10.542 10.0796 10.643 10.2593 10.8227C10.4391 11.0024 10.54 11.2462 10.54 11.5003V15.3337C10.54 15.5878 10.4391 15.8316 10.2593 16.0113C10.0796 16.191 9.83587 16.292 9.58171 16.292C9.32754 16.292 9.08378 16.191 8.90406 16.0113C8.72434 15.8316 8.62337 15.5878 8.62337 15.3337V11.5003C8.62337 11.2462 8.72434 11.0024 8.90406 10.8227C9.08378 10.643 9.32754 10.542 9.58171 10.542ZM6.47671 17.4132C6.51753 17.8918 6.73658 18.3377 7.09046 18.6624C7.44435 18.9872 7.90729 19.1673 8.38762 19.167H14.6091C15.0891 19.1668 15.5516 18.9865 15.9051 18.6618C16.2586 18.3371 16.4773 17.8915 16.5181 17.4132L17.3538 7.66699H5.64296L6.47671 17.4132Z" fill="#003350"/>
</svg>
