<svg width="18" height="18" viewBox="0 0 18 18" fill="none" xmlns="http://www.w3.org/2000/svg">
<path d="M13.6788 12.8056L17.3333 16.4593L16.126 17.6667L12.4723 14.0122C11.1128 15.102 9.42181 15.6947 7.67943 15.6922C3.44039 15.6922 0 12.2519 0 8.01281C0 3.77376 3.44039 0.333374 7.67943 0.333374C11.9185 0.333374 15.3589 3.77376 15.3589 8.01281C15.3613 9.75519 14.7686 11.4461 13.6788 12.8056ZM11.9671 12.1725C13.05 11.0589 13.6548 9.56613 13.6523 8.01281C13.6523 4.71321 10.979 2.03991 7.67943 2.03991C4.37984 2.03991 1.70654 4.71321 1.70654 8.01281C1.70654 11.3124 4.37984 13.9857 7.67943 13.9857C9.23275 13.9881 10.7255 13.3834 11.8391 12.3005L11.9671 12.1725Z" fill="#999999"/>
</svg>
