<svg width="29" height="29" viewBox="0 0 29 29" fill="none" xmlns="http://www.w3.org/2000/svg">
<path d="M10.15 29C9.76544 29 9.39662 28.8472 9.1247 28.5753C8.85277 28.3034 8.7 27.9346 8.7 27.55V23.2H2.9C2.13087 23.2 1.39325 22.8945 0.84939 22.3506C0.305535 21.8068 0 21.0691 0 20.3V2.9C0 2.13087 0.305535 1.39325 0.84939 0.84939C1.39325 0.305535 2.13087 0 2.9 0H26.1C26.8691 0 27.6068 0.305535 28.1506 0.84939C28.6945 1.39325 29 2.13087 29 2.9V20.3C29 21.0691 28.6945 21.8068 28.1506 22.3506C27.6068 22.8945 26.8691 23.2 26.1 23.2H17.255L11.89 28.5795C11.6 28.855 11.2375 29 10.875 29H10.15ZM11.6 20.3V24.766L16.066 20.3H26.1V2.9H2.9V20.3H11.6ZM5.8 7.25H23.2V10.15H5.8V7.25ZM5.8 13.05H18.85V15.95H5.8V13.05Z" fill="#003350"/>
</svg>
