<svg width="31" height="30" viewBox="0 0 31 30" fill="none" xmlns="http://www.w3.org/2000/svg">
<path d="M4.60471 25.7893C3.17206 24.4056 2.02933 22.7505 1.24319 20.9204C0.457058 19.0903 0.0432642 17.122 0.025957 15.1303C0.00864973 13.1387 0.388175 11.1635 1.14239 9.32001C1.8966 7.47657 3.0104 5.80179 4.41879 4.3934C5.82718 2.98501 7.50196 1.87121 9.3454 1.117C11.1888 0.362785 13.164 -0.0167409 15.1557 0.000566351C17.1474 0.0178736 19.1157 0.431667 20.9458 1.2178C22.7758 2.00394 24.431 3.14667 25.8147 4.57932C28.5471 7.40836 30.059 11.1974 30.0248 15.1303C29.9906 19.0633 28.4131 22.8255 25.632 25.6066C22.8509 28.3877 19.0887 29.9653 15.1557 29.9994C11.2228 30.0336 7.43375 28.5217 4.60471 25.7893ZM6.71971 23.6743C8.9714 25.926 12.0253 27.191 15.2097 27.191C18.3941 27.191 21.448 25.926 23.6997 23.6743C25.9514 21.4226 27.2164 18.3687 27.2164 15.1843C27.2164 12 25.9514 8.94601 23.6997 6.69432C21.448 4.44264 18.3941 3.17765 15.2097 3.17765C12.0253 3.17765 8.9714 4.44264 6.71971 6.69432C4.46803 8.94601 3.20304 12 3.20304 15.1843C3.20304 18.3687 4.46803 21.4226 6.71971 23.6743ZM21.5697 10.9393L17.3247 15.1843L21.5697 19.4293L19.4547 21.5443L15.2097 17.2993L10.9647 21.5443L8.84971 19.4293L13.0947 15.1843L8.84971 10.9393L10.9647 8.82432L15.2097 13.0693L19.4547 8.82432L21.5697 10.9393Z" fill="#003350"/>
</svg>
