<svg width="16" height="17" viewBox="0 0 16 17" fill="none" xmlns="http://www.w3.org/2000/svg">
<path d="M7.33301 9.24178L7.33301 6.57511C7.33301 6.20692 7.63148 5.90845 7.99967 5.90845C8.36786 5.90845 8.66634 6.20692 8.66634 6.57511L8.66634 9.24178C8.66634 9.60997 8.36787 9.90845 7.99968 9.90845C7.63149 9.90845 7.33301 9.60997 7.33301 9.24178Z" fill="#D21C1C"/>
<path d="M7.99968 12.5751C8.36787 12.5751 8.66634 12.2766 8.66634 11.9084C8.66634 11.5403 8.36787 11.2418 7.99968 11.2418C7.63149 11.2418 7.33301 11.5403 7.33301 11.9084C7.33301 12.2766 7.63149 12.5751 7.99968 12.5751Z" fill="#D21C1C"/>
<path fill-rule="evenodd" clip-rule="evenodd" d="M7.99968 1.90845C8.50471 1.90845 8.96639 2.19378 9.19225 2.6455L14.5256 13.3122C14.7322 13.7255 14.7102 14.2163 14.4672 14.6094C14.2243 15.0025 13.7951 15.2418 13.333 15.2418H2.66634C2.20424 15.2418 1.77508 15.0025 1.53214 14.6094C1.2892 14.2163 1.26711 13.7255 1.47377 13.3122L6.80711 2.6455C7.03296 2.19378 7.49465 1.90845 7.99968 1.90845ZM2.66634 13.9084H13.333L7.99968 3.24178L2.66634 13.9084Z" fill="#D21C1C"/>
</svg>
