<svg width="172" height="59" viewBox="0 0 172 59" fill="none" xmlns="http://www.w3.org/2000/svg">
<path d="M40.5434 4.59518H37.5825V1.55004C37.5789 1.2131 37.4566 0.888229 37.2372 0.632761C37.0177 0.377293 36.7151 0.207642 36.3829 0.153747C34.2383 -0.103405 32.0673 -0.0375441 29.9422 0.349134C26.0959 1.04966 23.0255 2.77477 20.9453 5.39102C18.865 2.77477 15.7946 1.04966 11.9483 0.349134C9.82483 -0.0376385 7.65541 -0.103501 5.51241 0.153747C5.18015 0.207642 4.87759 0.377293 4.65811 0.632761C4.43863 0.888229 4.31634 1.2131 4.31282 1.55004V4.59518H1.40428C1.02967 4.60143 0.672516 4.75481 0.409824 5.02225C0.147133 5.28968 -5.20264e-05 5.64975 1.37952e-08 6.02483V32.5924C0.00460924 32.8156 0.0613782 33.0347 0.165759 33.232C0.270141 33.4293 0.419233 33.5994 0.60109 33.7286C0.782947 33.8579 0.992515 33.9427 1.213 33.9762C1.43349 34.0098 1.65877 33.9912 1.87079 33.922C1.97552 33.8839 12.5291 30.2811 20.3978 33.8743C20.5819 33.9572 20.7815 34 20.9833 34C21.1852 34 21.3847 33.9572 21.5689 33.8743C29.4186 30.2907 39.9912 33.8743 40.0959 33.922C40.2491 33.9742 40.4101 34 40.5719 33.9982C40.9466 33.9983 41.3063 33.8509 41.5734 33.5879C41.8405 33.325 41.9938 32.9674 42 32.5924V6.00577C41.9975 5.8172 41.9578 5.63099 41.8831 5.45786C41.8085 5.28472 41.7003 5.12809 41.5649 4.99698C41.4295 4.86587 41.2696 4.76286 41.0942 4.6939C40.9189 4.62494 40.7317 4.59139 40.5434 4.59518ZM2.79429 30.6862V7.41635H4.33186V26.1924C4.3316 26.3938 4.37387 26.5931 4.4559 26.777C4.53794 26.961 4.65789 27.1255 4.80789 27.2598C4.96188 27.3916 5.14212 27.4891 5.33664 27.5458C5.53115 27.6025 5.73548 27.6171 5.93607 27.5886C6.01224 27.5886 12.1244 26.7356 16.5991 29.8046C11.1057 28.8658 5.59333 29.9523 2.79429 30.6862ZM19.5553 28.5322C17.4086 26.6607 14.779 25.432 11.9674 24.9867C10.671 24.7559 9.35678 24.6411 8.04012 24.6436C7.71642 24.6436 7.41652 24.6436 7.14519 24.6436V2.81766C9.85379 2.69852 16.4373 2.98445 19.5553 8.2789V28.5322ZM22.3733 8.28843C25.4818 3.01781 32.0748 2.71758 34.7834 2.83195V24.6531C33.169 24.5834 31.5518 24.692 29.9612 24.9772C27.1499 25.4235 24.5206 26.652 22.3733 28.5227V8.28843ZM25.3152 29.7951C29.7851 26.7213 35.9068 27.5648 35.983 27.5743C36.1836 27.605 36.3885 27.5915 36.5834 27.5347C36.7782 27.4779 36.9584 27.3792 37.1112 27.2455C37.2612 27.1112 37.3811 26.9467 37.4632 26.7627C37.5452 26.5788 37.5875 26.3795 37.5872 26.1781V7.40205H39.12V30.6862C36.3353 29.9523 30.8229 28.861 25.3152 29.8094V29.7951Z" fill="#64C0B7"/>
<path d="M66.792 6.816H70.512L76.968 24H73.392L71.952 19.896H65.376L63.936 24H60.36L66.792 6.816ZM70.896 16.92L69.384 12.6L68.76 10.536H68.568L67.944 12.6L66.408 16.92H70.896ZM78.8323 15.168H86.9683V17.952H78.8323V15.168ZM90.4446 6.816H93.6846V20.928H100.957V24H90.4446V6.816ZM105.007 10.416C104.447 10.416 103.967 10.216 103.567 9.816C103.167 9.416 102.967 8.936 102.967 8.376C102.967 7.816 103.167 7.344 103.567 6.96C103.967 6.56 104.447 6.36 105.007 6.36C105.567 6.36 106.039 6.56 106.423 6.96C106.823 7.344 107.023 7.816 107.023 8.376C107.023 8.936 106.823 9.416 106.423 9.816C106.039 10.216 105.567 10.416 105.007 10.416ZM103.423 11.76H106.567V24H103.423V11.76ZM116.68 24.384C115.848 24.384 115.104 24.208 114.448 23.856C113.808 23.504 113.328 23.064 113.008 22.536H112.816V24H109.864V6.816H113.008V11.52L112.816 13.248H113.008C113.344 12.72 113.832 12.28 114.472 11.928C115.112 11.56 115.848 11.376 116.68 11.376C117.784 11.376 118.784 11.656 119.68 12.216C120.592 12.76 121.304 13.528 121.816 14.52C122.328 15.512 122.584 16.632 122.584 17.88C122.584 19.144 122.328 20.272 121.816 21.264C121.304 22.24 120.592 23.008 119.68 23.568C118.784 24.112 117.784 24.384 116.68 24.384ZM116.128 21.48C116.72 21.48 117.272 21.328 117.784 21.024C118.296 20.72 118.704 20.296 119.008 19.752C119.312 19.208 119.464 18.584 119.464 17.88C119.464 17.176 119.312 16.552 119.008 16.008C118.704 15.464 118.296 15.048 117.784 14.76C117.272 14.456 116.72 14.304 116.128 14.304C115.552 14.304 115.008 14.456 114.496 14.76C113.984 15.048 113.576 15.464 113.272 16.008C112.968 16.552 112.816 17.176 112.816 17.88C112.816 18.584 112.968 19.208 113.272 19.752C113.576 20.296 113.984 20.72 114.496 21.024C115.008 21.328 115.552 21.48 116.128 21.48ZM124.77 11.76H127.722V13.392H127.914C128.218 12.816 128.69 12.344 129.33 11.976C129.97 11.592 130.674 11.4 131.442 11.4C132.002 11.4 132.514 11.488 132.978 11.664V14.808C132.546 14.648 132.178 14.536 131.874 14.472C131.586 14.392 131.274 14.352 130.938 14.352C130.01 14.352 129.274 14.688 128.73 15.36C128.186 16.032 127.914 16.88 127.914 17.904V24H124.77V11.76ZM138.382 24.384C137.086 24.384 136.022 24.008 135.19 23.256C134.358 22.488 133.942 21.488 133.942 20.256C133.942 19.44 134.158 18.72 134.59 18.096C135.022 17.472 135.614 16.992 136.366 16.656C137.118 16.32 137.95 16.152 138.862 16.152C140.126 16.152 141.206 16.336 142.102 16.704V16.176C142.102 15.504 141.846 14.96 141.334 14.544C140.838 14.128 140.166 13.92 139.318 13.92C138.742 13.92 138.182 14.056 137.638 14.328C137.11 14.584 136.67 14.928 136.318 15.36L134.302 13.776C134.894 13.008 135.638 12.416 136.534 12C137.43 11.584 138.406 11.376 139.462 11.376C141.334 11.376 142.758 11.808 143.734 12.672C144.71 13.536 145.198 14.8 145.198 16.464V24H142.102V22.752H141.91C141.542 23.232 141.054 23.624 140.446 23.928C139.854 24.232 139.166 24.384 138.382 24.384ZM139.126 21.936C140.038 21.936 140.758 21.648 141.286 21.072C141.83 20.48 142.102 19.792 142.102 19.008C141.286 18.624 140.43 18.432 139.534 18.432C137.902 18.432 137.086 19.04 137.086 20.256C137.086 20.752 137.262 21.16 137.614 21.48C137.966 21.784 138.47 21.936 139.126 21.936ZM148.091 11.76H151.043V13.392H151.235C151.539 12.816 152.011 12.344 152.651 11.976C153.291 11.592 153.995 11.4 154.763 11.4C155.323 11.4 155.835 11.488 156.299 11.664V14.808C155.867 14.648 155.499 14.536 155.195 14.472C154.907 14.392 154.595 14.352 154.259 14.352C153.331 14.352 152.595 14.688 152.051 15.36C151.507 16.032 151.235 16.88 151.235 17.904V24H148.091V11.76ZM162.688 23.424L157.528 11.76H161.104L164.272 19.368H164.464L167.512 11.76H171.016L163.456 29.184H160.072L162.688 23.424Z" fill="#042B56"/>
<path d="M169.701 37H2.29902C1.68928 37 1.10452 36.842 0.673367 36.5606C0.242216 36.2793 0 35.8978 0 35.5C0 35.1022 0.242216 34.7206 0.673367 34.4393C1.10452 34.158 1.68928 34 2.29902 34H169.701C170.311 34 170.895 34.158 171.327 34.4393C171.758 34.7206 172 35.1022 172 35.5C172 35.8978 171.758 36.2793 171.327 36.5606C170.895 36.842 170.311 37 169.701 37Z" fill="#64C0B7"/>
<path d="M1.148 42.976H4.354C5.39 42.976 6.29533 43.186 7.07 43.606C7.84467 44.026 8.43733 44.6187 8.848 45.384C9.268 46.14 9.478 47.008 9.478 47.988C9.478 48.968 9.268 49.8407 8.848 50.606C8.43733 51.362 7.84467 51.95 7.07 52.37C6.29533 52.79 5.39 53 4.354 53H1.148V42.976ZM4.326 51.502C5.446 51.502 6.31867 51.194 6.944 50.578C7.57867 49.9527 7.896 49.0893 7.896 47.988C7.896 46.896 7.57867 46.0373 6.944 45.412C6.31867 44.7867 5.446 44.474 4.326 44.474H2.716V51.502H4.326ZM11.8952 44.824C11.6059 44.824 11.3585 44.726 11.1532 44.53C10.9572 44.3247 10.8592 44.0773 10.8592 43.788C10.8592 43.4987 10.9572 43.256 11.1532 43.06C11.3585 42.8547 11.6059 42.752 11.8952 42.752C12.1845 42.752 12.4272 42.8547 12.6232 43.06C12.8285 43.256 12.9312 43.4987 12.9312 43.788C12.9312 44.0773 12.8285 44.3247 12.6232 44.53C12.4272 44.726 12.1845 44.824 11.8952 44.824ZM11.1252 45.86H12.6652V53H11.1252V45.86ZM17.1855 53.224C16.3642 53.224 15.6922 53.0467 15.1695 52.692C14.6469 52.328 14.2782 51.866 14.0635 51.306L15.4355 50.704C15.6035 51.0773 15.8369 51.362 16.1355 51.558C16.4435 51.754 16.7935 51.852 17.1855 51.852C17.5682 51.852 17.8902 51.7867 18.1515 51.656C18.4129 51.516 18.5435 51.3107 18.5435 51.04C18.5435 50.7787 18.4315 50.5733 18.2075 50.424C17.9835 50.2747 17.6382 50.144 17.1715 50.032L16.3175 49.822C15.7482 49.682 15.2769 49.4347 14.9035 49.08C14.5302 48.7253 14.3435 48.2773 14.3435 47.736C14.3435 47.316 14.4649 46.9473 14.7075 46.63C14.9595 46.3127 15.2955 46.07 15.7155 45.902C16.1355 45.7247 16.5929 45.636 17.0875 45.636C17.7502 45.636 18.3335 45.7713 18.8375 46.042C19.3415 46.3033 19.7055 46.686 19.9295 47.19L18.5855 47.778C18.3149 47.2273 17.8202 46.952 17.1015 46.952C16.7562 46.952 16.4669 47.022 16.2335 47.162C16.0002 47.302 15.8835 47.484 15.8835 47.708C15.8835 47.9227 15.9722 48.1 16.1495 48.24C16.3269 48.3707 16.5882 48.4827 16.9335 48.576L17.9835 48.842C18.6835 49.0193 19.2109 49.29 19.5655 49.654C19.9295 50.0087 20.1115 50.4473 20.1115 50.97C20.1115 51.418 19.9809 51.8147 19.7195 52.16C19.4675 52.496 19.1175 52.7573 18.6695 52.944C18.2215 53.1307 17.7269 53.224 17.1855 53.224ZM24.8172 53.224C24.1079 53.224 23.4685 53.0607 22.8992 52.734C22.3392 52.4073 21.9005 51.9593 21.5832 51.39C21.2752 50.8113 21.1212 50.158 21.1212 49.43C21.1212 48.702 21.2752 48.0533 21.5832 47.484C21.9005 46.9053 22.3392 46.4527 22.8992 46.126C23.4685 45.7993 24.1079 45.636 24.8172 45.636C25.6012 45.636 26.2685 45.8133 26.8192 46.168C27.3699 46.5227 27.7619 47.0033 27.9952 47.61L26.5812 48.198C26.2639 47.442 25.6619 47.064 24.7752 47.064C24.3925 47.064 24.0379 47.162 23.7112 47.358C23.3939 47.554 23.1372 47.834 22.9412 48.198C22.7545 48.5527 22.6612 48.9633 22.6612 49.43C22.6612 49.8967 22.7545 50.312 22.9412 50.676C23.1372 51.04 23.3939 51.32 23.7112 51.516C24.0379 51.712 24.3925 51.81 24.7752 51.81C25.2232 51.81 25.6059 51.712 25.9232 51.516C26.2499 51.3107 26.4972 51.0213 26.6652 50.648L28.0512 51.25C27.7805 51.8567 27.3699 52.3373 26.8192 52.692C26.2685 53.0467 25.6012 53.224 24.8172 53.224ZM32.6385 53.224C31.9198 53.224 31.2758 53.0607 30.7065 52.734C30.1372 52.398 29.6938 51.9407 29.3765 51.362C29.0592 50.7833 28.9005 50.1393 28.9005 49.43C28.9005 48.7207 29.0592 48.0767 29.3765 47.498C29.6938 46.9193 30.1372 46.4667 30.7065 46.14C31.2758 45.804 31.9198 45.636 32.6385 45.636C33.3572 45.636 34.0012 45.804 34.5705 46.14C35.1398 46.476 35.5832 46.9333 35.9005 47.512C36.2178 48.0907 36.3765 48.73 36.3765 49.43C36.3765 50.1393 36.2178 50.7833 35.9005 51.362C35.5832 51.9407 35.1398 52.398 34.5705 52.734C34.0012 53.0607 33.3572 53.224 32.6385 53.224ZM32.6385 51.81C33.0305 51.81 33.3945 51.7167 33.7305 51.53C34.0665 51.334 34.3325 51.0587 34.5285 50.704C34.7338 50.34 34.8365 49.9153 34.8365 49.43C34.8365 48.9447 34.7338 48.5247 34.5285 48.17C34.3325 47.8153 34.0665 47.5447 33.7305 47.358C33.3945 47.162 33.0305 47.064 32.6385 47.064C32.2465 47.064 31.8825 47.162 31.5465 47.358C31.2105 47.5447 30.9398 47.8153 30.7345 48.17C30.5385 48.5247 30.4405 48.9447 30.4405 49.43C30.4405 49.9153 30.5385 50.34 30.7345 50.704C30.9398 51.0587 31.2105 51.334 31.5465 51.53C31.8825 51.7167 32.2465 51.81 32.6385 51.81ZM36.7933 45.86H38.5153L40.4893 51.012H40.5453L42.5613 45.86H44.2413L41.2733 53H39.7333L36.7933 45.86ZM48.2908 53.224C47.5908 53.224 46.9608 53.0607 46.4008 52.734C45.8501 52.4073 45.4161 51.9593 45.0988 51.39C44.7908 50.8113 44.6368 50.1627 44.6368 49.444C44.6368 48.7627 44.7861 48.1327 45.0848 47.554C45.3928 46.966 45.8175 46.4993 46.3588 46.154C46.9001 45.8087 47.5161 45.636 48.2068 45.636C48.9255 45.636 49.5461 45.7947 50.0688 46.112C50.6008 46.4293 51.0021 46.8633 51.2728 47.414C51.5528 47.9647 51.6928 48.5853 51.6928 49.276C51.6928 49.4067 51.6788 49.57 51.6508 49.766H46.1768C46.2328 50.4287 46.4661 50.942 46.8768 51.306C47.2968 51.6607 47.7821 51.838 48.3328 51.838C48.7715 51.838 49.1495 51.74 49.4668 51.544C49.7935 51.3387 50.0548 51.0633 50.2508 50.718L51.5528 51.334C51.2168 51.922 50.7781 52.384 50.2368 52.72C49.6955 53.056 49.0468 53.224 48.2908 53.224ZM50.1248 48.59C50.1061 48.338 50.0268 48.0907 49.8868 47.848C49.7468 47.596 49.5321 47.386 49.2428 47.218C48.9628 47.05 48.6175 46.966 48.2068 46.966C47.7121 46.966 47.2921 47.1153 46.9468 47.414C46.6108 47.7033 46.3775 48.0953 46.2468 48.59H50.1248ZM53.0952 45.86H54.5652V46.91H54.6352C54.7939 46.546 55.0692 46.2473 55.4612 46.014C55.8532 45.7713 56.2686 45.65 56.7072 45.65C57.0526 45.65 57.3419 45.6967 57.5752 45.79V47.386C57.1646 47.2367 56.7959 47.162 56.4692 47.162C56.1146 47.162 55.7972 47.2553 55.5172 47.442C55.2466 47.6287 55.0319 47.8807 54.8732 48.198C54.7146 48.506 54.6352 48.8467 54.6352 49.22V53H53.0952V45.86ZM65.6272 53.224C64.8805 53.224 64.2179 53.056 63.6392 52.72C63.0699 52.384 62.6265 51.908 62.3092 51.292C61.9919 50.676 61.8332 49.962 61.8332 49.15V42.976H63.3872V49.234C63.3872 49.9713 63.5785 50.5733 63.9612 51.04C64.3532 51.4973 64.9085 51.726 65.6272 51.726C66.3459 51.726 66.8965 51.4973 67.2792 51.04C67.6619 50.5827 67.8532 49.9807 67.8532 49.234V42.976H69.4212V49.15C69.4212 49.9527 69.2672 50.662 68.9592 51.278C68.6512 51.894 68.2125 52.3747 67.6432 52.72C67.0739 53.056 66.4019 53.224 65.6272 53.224ZM71.2788 45.86H72.7488V46.798H72.8188C73.0241 46.462 73.3275 46.1867 73.7288 45.972C74.1395 45.748 74.5735 45.636 75.0308 45.636C75.8988 45.636 76.5568 45.8927 77.0048 46.406C77.4621 46.91 77.6908 47.6007 77.6908 48.478V53H76.1508V48.688C76.1508 48.128 76.0108 47.7173 75.7308 47.456C75.4601 47.1947 75.0821 47.064 74.5968 47.064C74.2515 47.064 73.9435 47.162 73.6728 47.358C73.4021 47.5447 73.1921 47.7967 73.0428 48.114C72.8935 48.4313 72.8188 48.772 72.8188 49.136V53H71.2788V45.86ZM79.4273 42.976H80.9673V53H79.4273V42.976ZM83.6589 44.824C83.3695 44.824 83.1222 44.726 82.9169 44.53C82.7209 44.3247 82.6229 44.0773 82.6229 43.788C82.6229 43.4987 82.7209 43.256 82.9169 43.06C83.1222 42.8547 83.3695 42.752 83.6589 42.752C83.9482 42.752 84.1909 42.8547 84.3869 43.06C84.5922 43.256 84.6949 43.4987 84.6949 43.788C84.6949 44.0773 84.5922 44.3247 84.3869 44.53C84.1909 44.726 83.9482 44.824 83.6589 44.824ZM82.8889 45.86H84.4289V53H82.8889V45.86ZM86.3452 45.86H87.8152V46.798H87.8852C88.0999 46.4527 88.4032 46.1727 88.7952 45.958C89.1872 45.7433 89.6072 45.636 90.0552 45.636C90.5686 45.636 91.0166 45.7573 91.3992 46C91.7819 46.2333 92.0572 46.546 92.2252 46.938C92.4679 46.546 92.7899 46.2333 93.1912 46C93.6019 45.7573 94.0826 45.636 94.6332 45.636C95.4546 45.636 96.0752 45.888 96.4952 46.392C96.9246 46.8867 97.1392 47.5633 97.1392 48.422V53H95.5992V48.688C95.5992 47.6053 95.1372 47.064 94.2132 47.064C93.7186 47.064 93.3126 47.2647 92.9952 47.666C92.6779 48.0673 92.5192 48.562 92.5192 49.15V53H90.9792V48.688C90.9792 47.6053 90.5032 47.064 89.5512 47.064C89.0659 47.064 88.6646 47.2647 88.3472 47.666C88.0392 48.0673 87.8852 48.562 87.8852 49.15V53H86.3452V45.86ZM99.778 44.824C99.4887 44.824 99.2413 44.726 99.036 44.53C98.84 44.3247 98.742 44.0773 98.742 43.788C98.742 43.4987 98.84 43.256 99.036 43.06C99.2413 42.8547 99.4887 42.752 99.778 42.752C100.067 42.752 100.31 42.8547 100.506 43.06C100.711 43.256 100.814 43.4987 100.814 43.788C100.814 44.0773 100.711 44.3247 100.506 44.53C100.31 44.726 100.067 44.824 99.778 44.824ZM99.008 45.86H100.548V53H99.008V45.86ZM105.322 53.112C105.005 53.112 104.706 53.0607 104.426 52.958C104.146 52.8553 103.917 52.72 103.74 52.552C103.339 52.1507 103.138 51.6047 103.138 50.914V47.218H101.892V45.86H103.138V43.844H104.678V45.86H106.414V47.218H104.678V50.578C104.678 50.9607 104.753 51.2313 104.902 51.39C105.042 51.5767 105.285 51.67 105.63 51.67C105.789 51.67 105.929 51.6513 106.05 51.614C106.171 51.5673 106.302 51.4973 106.442 51.404V52.902C106.134 53.042 105.761 53.112 105.322 53.112ZM110.867 53.224C110.167 53.224 109.537 53.0607 108.977 52.734C108.426 52.4073 107.992 51.9593 107.675 51.39C107.367 50.8113 107.213 50.1627 107.213 49.444C107.213 48.7627 107.362 48.1327 107.661 47.554C107.969 46.966 108.394 46.4993 108.935 46.154C109.476 45.8087 110.092 45.636 110.783 45.636C111.502 45.636 112.122 45.7947 112.645 46.112C113.177 46.4293 113.578 46.8633 113.849 47.414C114.129 47.9647 114.269 48.5853 114.269 49.276C114.269 49.4067 114.255 49.57 114.227 49.766H108.753C108.809 50.4287 109.042 50.942 109.453 51.306C109.873 51.6607 110.358 51.838 110.909 51.838C111.348 51.838 111.726 51.74 112.043 51.544C112.37 51.3387 112.631 51.0633 112.827 50.718L114.129 51.334C113.793 51.922 113.354 52.384 112.813 52.72C112.272 53.056 111.623 53.224 110.867 53.224ZM112.701 48.59C112.682 48.338 112.603 48.0907 112.463 47.848C112.323 47.596 112.108 47.386 111.819 47.218C111.539 47.05 111.194 46.966 110.783 46.966C110.288 46.966 109.868 47.1153 109.523 47.414C109.187 47.7033 108.954 48.0953 108.823 48.59H112.701ZM118.792 53.224C118.148 53.224 117.564 53.0607 117.042 52.734C116.519 52.4073 116.104 51.9593 115.796 51.39C115.497 50.8113 115.348 50.158 115.348 49.43C115.348 48.702 115.497 48.0533 115.796 47.484C116.104 46.9053 116.519 46.4527 117.042 46.126C117.564 45.7993 118.148 45.636 118.792 45.636C119.296 45.636 119.748 45.748 120.15 45.972C120.551 46.196 120.854 46.4713 121.06 46.798H121.13L121.06 45.79V42.976H122.6V53H121.13V52.076H121.06C120.854 52.3933 120.551 52.664 120.15 52.888C119.748 53.112 119.296 53.224 118.792 53.224ZM119.016 51.81C119.389 51.81 119.734 51.712 120.052 51.516C120.378 51.32 120.64 51.04 120.836 50.676C121.032 50.312 121.13 49.8967 121.13 49.43C121.13 48.9633 121.032 48.5527 120.836 48.198C120.64 47.834 120.378 47.554 120.052 47.358C119.734 47.162 119.389 47.064 119.016 47.064C118.642 47.064 118.292 47.162 117.966 47.358C117.639 47.554 117.378 47.834 117.182 48.198C116.986 48.5527 116.888 48.9633 116.888 49.43C116.888 49.8967 116.986 50.312 117.182 50.676C117.378 51.04 117.639 51.32 117.966 51.516C118.292 51.712 118.642 51.81 119.016 51.81ZM127.927 42.976H131.693C132.225 42.976 132.715 43.0927 133.163 43.326C133.621 43.5593 133.985 43.8813 134.255 44.292C134.526 44.7027 134.661 45.1553 134.661 45.65C134.661 46.1447 134.535 46.574 134.283 46.938C134.041 47.302 133.719 47.5773 133.317 47.764V47.848C133.821 48.0253 134.227 48.3193 134.535 48.73C134.853 49.1407 135.011 49.6213 135.011 50.172C135.011 50.7227 134.867 51.2127 134.577 51.642C134.297 52.0713 133.915 52.4073 133.429 52.65C132.953 52.8833 132.431 53 131.861 53H127.927V42.976ZM131.623 47.176C132.071 47.176 132.431 47.036 132.701 46.756C132.981 46.476 133.121 46.154 133.121 45.79C133.121 45.426 132.986 45.1087 132.715 44.838C132.454 44.558 132.109 44.418 131.679 44.418H129.495V47.176H131.623ZM131.861 51.544C132.337 51.544 132.715 51.3947 132.995 51.096C133.285 50.7973 133.429 50.452 133.429 50.06C133.429 49.6587 133.28 49.3133 132.981 49.024C132.692 48.7253 132.3 48.576 131.805 48.576H129.495V51.544H131.861ZM139.812 53.224C139.094 53.224 138.45 53.0607 137.88 52.734C137.311 52.398 136.868 51.9407 136.55 51.362C136.233 50.7833 136.074 50.1393 136.074 49.43C136.074 48.7207 136.233 48.0767 136.55 47.498C136.868 46.9193 137.311 46.4667 137.88 46.14C138.45 45.804 139.094 45.636 139.812 45.636C140.531 45.636 141.175 45.804 141.744 46.14C142.314 46.476 142.757 46.9333 143.074 47.512C143.392 48.0907 143.55 48.73 143.55 49.43C143.55 50.1393 143.392 50.7833 143.074 51.362C142.757 51.9407 142.314 52.398 141.744 52.734C141.175 53.0607 140.531 53.224 139.812 53.224ZM139.812 51.81C140.204 51.81 140.568 51.7167 140.904 51.53C141.24 51.334 141.506 51.0587 141.702 50.704C141.908 50.34 142.01 49.9153 142.01 49.43C142.01 48.9447 141.908 48.5247 141.702 48.17C141.506 47.8153 141.24 47.5447 140.904 47.358C140.568 47.162 140.204 47.064 139.812 47.064C139.42 47.064 139.056 47.162 138.72 47.358C138.384 47.5447 138.114 47.8153 137.908 48.17C137.712 48.5247 137.614 48.9447 137.614 49.43C137.614 49.9153 137.712 50.34 137.908 50.704C138.114 51.0587 138.384 51.334 138.72 51.53C139.056 51.7167 139.42 51.81 139.812 51.81ZM148.316 53.224C147.598 53.224 146.954 53.0607 146.384 52.734C145.815 52.398 145.372 51.9407 145.054 51.362C144.737 50.7833 144.578 50.1393 144.578 49.43C144.578 48.7207 144.737 48.0767 145.054 47.498C145.372 46.9193 145.815 46.4667 146.384 46.14C146.954 45.804 147.598 45.636 148.316 45.636C149.035 45.636 149.679 45.804 150.248 46.14C150.818 46.476 151.261 46.9333 151.578 47.512C151.896 48.0907 152.054 48.73 152.054 49.43C152.054 50.1393 151.896 50.7833 151.578 51.362C151.261 51.9407 150.818 52.398 150.248 52.734C149.679 53.0607 149.035 53.224 148.316 53.224ZM148.316 51.81C148.708 51.81 149.072 51.7167 149.408 51.53C149.744 51.334 150.01 51.0587 150.206 50.704C150.412 50.34 150.514 49.9153 150.514 49.43C150.514 48.9447 150.412 48.5247 150.206 48.17C150.01 47.8153 149.744 47.5447 149.408 47.358C149.072 47.162 148.708 47.064 148.316 47.064C147.924 47.064 147.56 47.162 147.224 47.358C146.888 47.5447 146.618 47.8153 146.412 48.17C146.216 48.5247 146.118 48.9447 146.118 49.43C146.118 49.9153 146.216 50.34 146.412 50.704C146.618 51.0587 146.888 51.334 147.224 51.53C147.56 51.7167 147.924 51.81 148.316 51.81ZM153.406 42.976H154.946V48.814H154.988L157.914 45.86H159.846V45.944L157.074 48.702L159.93 52.916V53H158.096L155.996 49.766L154.946 50.788V53H153.406V42.976ZM163.352 53.224C162.53 53.224 161.858 53.0467 161.336 52.692C160.813 52.328 160.444 51.866 160.23 51.306L161.602 50.704C161.77 51.0773 162.003 51.362 162.302 51.558C162.61 51.754 162.96 51.852 163.352 51.852C163.734 51.852 164.056 51.7867 164.318 51.656C164.579 51.516 164.71 51.3107 164.71 51.04C164.71 50.7787 164.598 50.5733 164.374 50.424C164.15 50.2747 163.804 50.144 163.338 50.032L162.484 49.822C161.914 49.682 161.443 49.4347 161.07 49.08C160.696 48.7253 160.51 48.2773 160.51 47.736C160.51 47.316 160.631 46.9473 160.874 46.63C161.126 46.3127 161.462 46.07 161.882 45.902C162.302 45.7247 162.759 45.636 163.254 45.636C163.916 45.636 164.5 45.7713 165.004 46.042C165.508 46.3033 165.872 46.686 166.096 47.19L164.752 47.778C164.481 47.2273 163.986 46.952 163.268 46.952C162.922 46.952 162.633 47.022 162.4 47.162C162.166 47.302 162.05 47.484 162.05 47.708C162.05 47.9227 162.138 48.1 162.316 48.24C162.493 48.3707 162.754 48.4827 163.1 48.576L164.15 48.842C164.85 49.0193 165.377 49.29 165.732 49.654C166.096 50.0087 166.278 50.4473 166.278 50.97C166.278 51.418 166.147 51.8147 165.886 52.16C165.634 52.496 165.284 52.7573 164.836 52.944C164.388 53.1307 163.893 53.224 163.352 53.224ZM168.577 53.084C168.278 53.084 168.022 52.9813 167.807 52.776C167.602 52.5613 167.499 52.3047 167.499 52.006C167.499 51.7073 167.602 51.4553 167.807 51.25C168.022 51.0447 168.278 50.942 168.577 50.942C168.876 50.942 169.128 51.0447 169.333 51.25C169.548 51.4553 169.655 51.7073 169.655 52.006C169.655 52.3047 169.548 52.5613 169.333 52.776C169.128 52.9813 168.876 53.084 168.577 53.084Z" fill="#163C57"/>
</svg>
