<svg width="182" height="63" viewBox="0 0 182 63" fill="none" xmlns="http://www.w3.org/2000/svg">
<path d="M41.4935 4.59518H38.5326V1.55004C38.5291 1.2131 38.4068 0.888229 38.1874 0.632761C37.9679 0.377293 37.6653 0.207642 37.3331 0.153747C35.1885 -0.103405 33.0175 -0.0375441 30.8924 0.349134C27.0461 1.04966 23.9757 2.77477 21.8955 5.39102C19.8152 2.77477 16.7448 1.04966 12.8985 0.349134C10.775 -0.0376385 8.6056 -0.103501 6.4626 0.153747C6.13035 0.207642 5.82778 0.377293 5.6083 0.632761C5.38882 0.888229 5.26653 1.2131 5.26301 1.55004V4.59518H2.35448C1.97987 4.60143 1.62271 4.75481 1.36002 5.02225C1.09733 5.28968 0.950143 5.64975 0.950195 6.02483V32.5924C0.954805 32.8156 1.01157 33.0347 1.11595 33.232C1.22034 33.4293 1.36943 33.5994 1.55129 33.7286C1.73314 33.8579 1.94271 33.9427 2.1632 33.9762C2.38369 34.0098 2.60897 33.9912 2.82099 33.922C2.92571 33.8839 13.4793 30.2811 21.348 33.8743C21.5321 33.9572 21.7317 34 21.9335 34C22.1354 34 22.3349 33.9572 22.519 33.8743C30.3688 30.2907 40.9414 33.8743 41.0461 33.922C41.1993 33.9742 41.3603 34 41.5221 33.9982C41.8968 33.9983 42.2565 33.8509 42.5236 33.5879C42.7907 33.325 42.944 32.9674 42.9502 32.5924V6.00577C42.9477 5.8172 42.908 5.63099 42.8333 5.45786C42.7587 5.28472 42.6505 5.12809 42.5151 4.99698C42.3797 4.86587 42.2198 4.76286 42.0444 4.6939C41.8691 4.62494 41.6819 4.59139 41.4935 4.59518ZM3.74448 30.6862V7.41635H5.28205V26.1924C5.28179 26.3938 5.32406 26.5931 5.4061 26.777C5.48814 26.961 5.60809 27.1255 5.75808 27.2598C5.91208 27.3916 6.09232 27.4891 6.28683 27.5458C6.48135 27.6025 6.68568 27.6171 6.88627 27.5886C6.96243 27.5886 13.0746 26.7356 17.5493 29.8046C12.0559 28.8658 6.54353 29.9523 3.74448 30.6862ZM20.5054 28.5322C18.3588 26.6607 15.7292 25.432 12.9176 24.9867C11.6212 24.7559 10.307 24.6411 8.99032 24.6436C8.66662 24.6436 8.36672 24.6436 8.09538 24.6436V2.81766C10.804 2.69852 17.3875 2.98445 20.5054 8.2789V28.5322ZM23.3235 8.28843C26.432 3.01781 33.025 2.71758 35.7336 2.83195V24.6531C34.1192 24.5834 32.502 24.692 30.9114 24.9772C28.1001 25.4235 25.4708 26.652 23.3235 28.5227V8.28843ZM26.2654 29.7951C30.7353 26.7213 36.857 27.5648 36.9332 27.5743C37.1338 27.605 37.3387 27.5915 37.5336 27.5347C37.7284 27.4779 37.9086 27.3792 38.0614 27.2455C38.2114 27.1112 38.3313 26.9467 38.4134 26.7627C38.4954 26.5788 38.5377 26.3795 38.5374 26.1781V7.40205H40.0702V30.6862C37.2855 29.9523 31.773 28.861 26.2654 29.8094V29.7951Z" fill="#E9EBF8"/>
<path d="M67.7422 6.816H71.4622L77.9182 24H74.3422L72.9022 19.896H66.3262L64.8862 24H61.3102L67.7422 6.816ZM71.8462 16.92L70.3342 12.6L69.7102 10.536H69.5182L68.8942 12.6L67.3582 16.92H71.8462ZM79.7825 15.168H87.9185V17.952H79.7825V15.168ZM91.3948 6.816H94.6348V20.928H101.907V24H91.3948V6.816ZM105.958 10.416C105.398 10.416 104.918 10.216 104.518 9.816C104.118 9.416 103.918 8.936 103.918 8.376C103.918 7.816 104.118 7.344 104.518 6.96C104.918 6.56 105.398 6.36 105.958 6.36C106.518 6.36 106.99 6.56 107.374 6.96C107.774 7.344 107.974 7.816 107.974 8.376C107.974 8.936 107.774 9.416 107.374 9.816C106.99 10.216 106.518 10.416 105.958 10.416ZM104.374 11.76H107.518V24H104.374V11.76ZM117.63 24.384C116.798 24.384 116.054 24.208 115.398 23.856C114.758 23.504 114.278 23.064 113.958 22.536H113.766V24H110.814V6.816H113.958V11.52L113.766 13.248H113.958C114.294 12.72 114.782 12.28 115.422 11.928C116.062 11.56 116.798 11.376 117.63 11.376C118.734 11.376 119.734 11.656 120.63 12.216C121.542 12.76 122.254 13.528 122.766 14.52C123.278 15.512 123.534 16.632 123.534 17.88C123.534 19.144 123.278 20.272 122.766 21.264C122.254 22.24 121.542 23.008 120.63 23.568C119.734 24.112 118.734 24.384 117.63 24.384ZM117.078 21.48C117.67 21.48 118.222 21.328 118.734 21.024C119.246 20.72 119.654 20.296 119.958 19.752C120.262 19.208 120.414 18.584 120.414 17.88C120.414 17.176 120.262 16.552 119.958 16.008C119.654 15.464 119.246 15.048 118.734 14.76C118.222 14.456 117.67 14.304 117.078 14.304C116.502 14.304 115.958 14.456 115.446 14.76C114.934 15.048 114.526 15.464 114.222 16.008C113.918 16.552 113.766 17.176 113.766 17.88C113.766 18.584 113.918 19.208 114.222 19.752C114.526 20.296 114.934 20.72 115.446 21.024C115.958 21.328 116.502 21.48 117.078 21.48ZM125.721 11.76H128.673V13.392H128.865C129.169 12.816 129.641 12.344 130.281 11.976C130.921 11.592 131.625 11.4 132.393 11.4C132.953 11.4 133.465 11.488 133.929 11.664V14.808C133.497 14.648 133.129 14.536 132.825 14.472C132.537 14.392 132.225 14.352 131.889 14.352C130.961 14.352 130.225 14.688 129.681 15.36C129.137 16.032 128.865 16.88 128.865 17.904V24H125.721V11.76ZM139.332 24.384C138.036 24.384 136.972 24.008 136.14 23.256C135.308 22.488 134.892 21.488 134.892 20.256C134.892 19.44 135.108 18.72 135.54 18.096C135.972 17.472 136.564 16.992 137.316 16.656C138.068 16.32 138.9 16.152 139.812 16.152C141.076 16.152 142.156 16.336 143.052 16.704V16.176C143.052 15.504 142.796 14.96 142.284 14.544C141.788 14.128 141.116 13.92 140.268 13.92C139.692 13.92 139.132 14.056 138.588 14.328C138.06 14.584 137.62 14.928 137.268 15.36L135.252 13.776C135.844 13.008 136.588 12.416 137.484 12C138.38 11.584 139.356 11.376 140.412 11.376C142.284 11.376 143.708 11.808 144.684 12.672C145.66 13.536 146.148 14.8 146.148 16.464V24H143.052V22.752H142.86C142.492 23.232 142.004 23.624 141.396 23.928C140.804 24.232 140.116 24.384 139.332 24.384ZM140.076 21.936C140.988 21.936 141.708 21.648 142.236 21.072C142.78 20.48 143.052 19.792 143.052 19.008C142.236 18.624 141.38 18.432 140.484 18.432C138.852 18.432 138.036 19.04 138.036 20.256C138.036 20.752 138.212 21.16 138.564 21.48C138.916 21.784 139.42 21.936 140.076 21.936ZM149.041 11.76H151.993V13.392H152.185C152.489 12.816 152.961 12.344 153.601 11.976C154.241 11.592 154.945 11.4 155.713 11.4C156.273 11.4 156.785 11.488 157.249 11.664V14.808C156.817 14.648 156.449 14.536 156.145 14.472C155.857 14.392 155.545 14.352 155.209 14.352C154.281 14.352 153.545 14.688 153.001 15.36C152.457 16.032 152.185 16.88 152.185 17.904V24H149.041V11.76ZM163.638 23.424L158.478 11.76H162.054L165.222 19.368H165.414L168.462 11.76H171.966L164.406 29.184H161.022L163.638 23.424Z" fill="#042B56"/>
<path d="M170.651 37H3.24922C2.63948 37 2.05471 36.842 1.62356 36.5606C1.19241 36.2793 0.950195 35.8978 0.950195 35.5C0.950195 35.1022 1.19241 34.7206 1.62356 34.4393C2.05471 34.158 2.63948 34 3.24922 34H170.651C171.261 34 171.846 34.158 172.277 34.4393C172.708 34.7206 172.95 35.1022 172.95 35.5C172.95 35.8978 172.708 36.2793 172.277 36.5606C171.846 36.842 171.261 37 170.651 37Z" fill="white"/>
<path d="M2.0982 42.976H5.3042C6.3402 42.976 7.24553 43.186 8.0202 43.606C8.79486 44.026 9.38753 44.6187 9.7982 45.384C10.2182 46.14 10.4282 47.008 10.4282 47.988C10.4282 48.968 10.2182 49.8407 9.7982 50.606C9.38753 51.362 8.79486 51.95 8.0202 52.37C7.24553 52.79 6.3402 53 5.3042 53H2.0982V42.976ZM5.2762 51.502C6.3962 51.502 7.26886 51.194 7.8942 50.578C8.52886 49.9527 8.8462 49.0893 8.8462 47.988C8.8462 46.896 8.52886 46.0373 7.8942 45.412C7.26886 44.7867 6.3962 44.474 5.2762 44.474H3.6662V51.502H5.2762ZM12.8454 44.824C12.556 44.824 12.3087 44.726 12.1034 44.53C11.9074 44.3247 11.8094 44.0773 11.8094 43.788C11.8094 43.4987 11.9074 43.256 12.1034 43.06C12.3087 42.8547 12.556 42.752 12.8454 42.752C13.1347 42.752 13.3774 42.8547 13.5734 43.06C13.7787 43.256 13.8814 43.4987 13.8814 43.788C13.8814 44.0773 13.7787 44.3247 13.5734 44.53C13.3774 44.726 13.1347 44.824 12.8454 44.824ZM12.0754 45.86H13.6154V53H12.0754V45.86ZM18.1357 53.224C17.3144 53.224 16.6424 53.0467 16.1197 52.692C15.5971 52.328 15.2284 51.866 15.0137 51.306L16.3857 50.704C16.5537 51.0773 16.7871 51.362 17.0857 51.558C17.3937 51.754 17.7437 51.852 18.1357 51.852C18.5184 51.852 18.8404 51.7867 19.1017 51.656C19.3631 51.516 19.4937 51.3107 19.4937 51.04C19.4937 50.7787 19.3817 50.5733 19.1577 50.424C18.9337 50.2747 18.5884 50.144 18.1217 50.032L17.2677 49.822C16.6984 49.682 16.2271 49.4347 15.8537 49.08C15.4804 48.7253 15.2937 48.2773 15.2937 47.736C15.2937 47.316 15.4151 46.9473 15.6577 46.63C15.9097 46.3127 16.2457 46.07 16.6657 45.902C17.0857 45.7247 17.5431 45.636 18.0377 45.636C18.7004 45.636 19.2837 45.7713 19.7877 46.042C20.2917 46.3033 20.6557 46.686 20.8797 47.19L19.5357 47.778C19.2651 47.2273 18.7704 46.952 18.0517 46.952C17.7064 46.952 17.4171 47.022 17.1837 47.162C16.9504 47.302 16.8337 47.484 16.8337 47.708C16.8337 47.9227 16.9224 48.1 17.0997 48.24C17.2771 48.3707 17.5384 48.4827 17.8837 48.576L18.9337 48.842C19.6337 49.0193 20.1611 49.29 20.5157 49.654C20.8797 50.0087 21.0617 50.4473 21.0617 50.97C21.0617 51.418 20.9311 51.8147 20.6697 52.16C20.4177 52.496 20.0677 52.7573 19.6197 52.944C19.1717 53.1307 18.6771 53.224 18.1357 53.224ZM25.7674 53.224C25.058 53.224 24.4187 53.0607 23.8494 52.734C23.2894 52.4073 22.8507 51.9593 22.5334 51.39C22.2254 50.8113 22.0714 50.158 22.0714 49.43C22.0714 48.702 22.2254 48.0533 22.5334 47.484C22.8507 46.9053 23.2894 46.4527 23.8494 46.126C24.4187 45.7993 25.058 45.636 25.7674 45.636C26.5514 45.636 27.2187 45.8133 27.7694 46.168C28.32 46.5227 28.712 47.0033 28.9454 47.61L27.5314 48.198C27.214 47.442 26.612 47.064 25.7254 47.064C25.3427 47.064 24.988 47.162 24.6614 47.358C24.344 47.554 24.0874 47.834 23.8914 48.198C23.7047 48.5527 23.6114 48.9633 23.6114 49.43C23.6114 49.8967 23.7047 50.312 23.8914 50.676C24.0874 51.04 24.344 51.32 24.6614 51.516C24.988 51.712 25.3427 51.81 25.7254 51.81C26.1734 51.81 26.556 51.712 26.8734 51.516C27.2 51.3107 27.4474 51.0213 27.6154 50.648L29.0014 51.25C28.7307 51.8567 28.32 52.3373 27.7694 52.692C27.2187 53.0467 26.5514 53.224 25.7674 53.224ZM33.5887 53.224C32.87 53.224 32.226 53.0607 31.6567 52.734C31.0873 52.398 30.644 51.9407 30.3267 51.362C30.0093 50.7833 29.8507 50.1393 29.8507 49.43C29.8507 48.7207 30.0093 48.0767 30.3267 47.498C30.644 46.9193 31.0873 46.4667 31.6567 46.14C32.226 45.804 32.87 45.636 33.5887 45.636C34.3073 45.636 34.9513 45.804 35.5207 46.14C36.09 46.476 36.5333 46.9333 36.8507 47.512C37.168 48.0907 37.3267 48.73 37.3267 49.43C37.3267 50.1393 37.168 50.7833 36.8507 51.362C36.5333 51.9407 36.09 52.398 35.5207 52.734C34.9513 53.0607 34.3073 53.224 33.5887 53.224ZM33.5887 51.81C33.9807 51.81 34.3447 51.7167 34.6807 51.53C35.0167 51.334 35.2827 51.0587 35.4787 50.704C35.684 50.34 35.7867 49.9153 35.7867 49.43C35.7867 48.9447 35.684 48.5247 35.4787 48.17C35.2827 47.8153 35.0167 47.5447 34.6807 47.358C34.3447 47.162 33.9807 47.064 33.5887 47.064C33.1967 47.064 32.8327 47.162 32.4967 47.358C32.1607 47.5447 31.89 47.8153 31.6847 48.17C31.4887 48.5247 31.3907 48.9447 31.3907 49.43C31.3907 49.9153 31.4887 50.34 31.6847 50.704C31.89 51.0587 32.1607 51.334 32.4967 51.53C32.8327 51.7167 33.1967 51.81 33.5887 51.81ZM37.7435 45.86H39.4655L41.4395 51.012H41.4955L43.5115 45.86H45.1915L42.2235 53H40.6835L37.7435 45.86ZM49.241 53.224C48.541 53.224 47.911 53.0607 47.351 52.734C46.8003 52.4073 46.3663 51.9593 46.049 51.39C45.741 50.8113 45.587 50.1627 45.587 49.444C45.587 48.7627 45.7363 48.1327 46.035 47.554C46.343 46.966 46.7677 46.4993 47.309 46.154C47.8503 45.8087 48.4663 45.636 49.157 45.636C49.8757 45.636 50.4963 45.7947 51.019 46.112C51.551 46.4293 51.9523 46.8633 52.223 47.414C52.503 47.9647 52.643 48.5853 52.643 49.276C52.643 49.4067 52.629 49.57 52.601 49.766H47.127C47.183 50.4287 47.4163 50.942 47.827 51.306C48.247 51.6607 48.7323 51.838 49.283 51.838C49.7217 51.838 50.0997 51.74 50.417 51.544C50.7437 51.3387 51.005 51.0633 51.201 50.718L52.503 51.334C52.167 51.922 51.7283 52.384 51.187 52.72C50.6457 53.056 49.997 53.224 49.241 53.224ZM51.075 48.59C51.0563 48.338 50.977 48.0907 50.837 47.848C50.697 47.596 50.4823 47.386 50.193 47.218C49.913 47.05 49.5677 46.966 49.157 46.966C48.6623 46.966 48.2423 47.1153 47.897 47.414C47.561 47.7033 47.3277 48.0953 47.197 48.59H51.075ZM54.0454 45.86H55.5154V46.91H55.5854C55.7441 46.546 56.0194 46.2473 56.4114 46.014C56.8034 45.7713 57.2187 45.65 57.6574 45.65C58.0027 45.65 58.2921 45.6967 58.5254 45.79V47.386C58.1147 47.2367 57.7461 47.162 57.4194 47.162C57.0647 47.162 56.7474 47.2553 56.4674 47.442C56.1967 47.6287 55.9821 47.8807 55.8234 48.198C55.6647 48.506 55.5854 48.8467 55.5854 49.22V53H54.0454V45.86ZM66.5774 53.224C65.8307 53.224 65.168 53.056 64.5894 52.72C64.02 52.384 63.5767 51.908 63.2594 51.292C62.942 50.676 62.7834 49.962 62.7834 49.15V42.976H64.3374V49.234C64.3374 49.9713 64.5287 50.5733 64.9114 51.04C65.3034 51.4973 65.8587 51.726 66.5774 51.726C67.296 51.726 67.8467 51.4973 68.2294 51.04C68.612 50.5827 68.8034 49.9807 68.8034 49.234V42.976H70.3714V49.15C70.3714 49.9527 70.2174 50.662 69.9094 51.278C69.6014 51.894 69.1627 52.3747 68.5934 52.72C68.024 53.056 67.352 53.224 66.5774 53.224ZM72.229 45.86H73.699V46.798H73.769C73.9743 46.462 74.2777 46.1867 74.679 45.972C75.0897 45.748 75.5237 45.636 75.981 45.636C76.849 45.636 77.507 45.8927 77.955 46.406C78.4123 46.91 78.641 47.6007 78.641 48.478V53H77.101V48.688C77.101 48.128 76.961 47.7173 76.681 47.456C76.4103 47.1947 76.0323 47.064 75.547 47.064C75.2017 47.064 74.8937 47.162 74.623 47.358C74.3523 47.5447 74.1423 47.7967 73.993 48.114C73.8437 48.4313 73.769 48.772 73.769 49.136V53H72.229V45.86ZM80.3774 42.976H81.9174V53H80.3774V42.976ZM84.6091 44.824C84.3197 44.824 84.0724 44.726 83.8671 44.53C83.6711 44.3247 83.5731 44.0773 83.5731 43.788C83.5731 43.4987 83.6711 43.256 83.8671 43.06C84.0724 42.8547 84.3197 42.752 84.6091 42.752C84.8984 42.752 85.1411 42.8547 85.3371 43.06C85.5424 43.256 85.6451 43.4987 85.6451 43.788C85.6451 44.0773 85.5424 44.3247 85.3371 44.53C85.1411 44.726 84.8984 44.824 84.6091 44.824ZM83.8391 45.86H85.3791V53H83.8391V45.86ZM87.2954 45.86H88.7654V46.798H88.8354C89.0501 46.4527 89.3534 46.1727 89.7454 45.958C90.1374 45.7433 90.5574 45.636 91.0054 45.636C91.5187 45.636 91.9667 45.7573 92.3494 46C92.7321 46.2333 93.0074 46.546 93.1754 46.938C93.4181 46.546 93.7401 46.2333 94.1414 46C94.5521 45.7573 95.0327 45.636 95.5834 45.636C96.4047 45.636 97.0254 45.888 97.4454 46.392C97.8747 46.8867 98.0894 47.5633 98.0894 48.422V53H96.5494V48.688C96.5494 47.6053 96.0874 47.064 95.1634 47.064C94.6687 47.064 94.2627 47.2647 93.9454 47.666C93.6281 48.0673 93.4694 48.562 93.4694 49.15V53H91.9294V48.688C91.9294 47.6053 91.4534 47.064 90.5014 47.064C90.0161 47.064 89.6147 47.2647 89.2974 47.666C88.9894 48.0673 88.8354 48.562 88.8354 49.15V53H87.2954V45.86ZM100.728 44.824C100.439 44.824 100.192 44.726 99.9862 44.53C99.7902 44.3247 99.6922 44.0773 99.6922 43.788C99.6922 43.4987 99.7902 43.256 99.9862 43.06C100.192 42.8547 100.439 42.752 100.728 42.752C101.018 42.752 101.26 42.8547 101.456 43.06C101.662 43.256 101.764 43.4987 101.764 43.788C101.764 44.0773 101.662 44.3247 101.456 44.53C101.26 44.726 101.018 44.824 100.728 44.824ZM99.9582 45.86H101.498V53H99.9582V45.86ZM106.272 53.112C105.955 53.112 105.656 53.0607 105.376 52.958C105.096 52.8553 104.868 52.72 104.69 52.552C104.289 52.1507 104.088 51.6047 104.088 50.914V47.218H102.842V45.86H104.088V43.844H105.628V45.86H107.364V47.218H105.628V50.578C105.628 50.9607 105.703 51.2313 105.852 51.39C105.992 51.5767 106.235 51.67 106.58 51.67C106.739 51.67 106.879 51.6513 107 51.614C107.122 51.5673 107.252 51.4973 107.392 51.404V52.902C107.084 53.042 106.711 53.112 106.272 53.112ZM111.817 53.224C111.117 53.224 110.487 53.0607 109.927 52.734C109.377 52.4073 108.943 51.9593 108.625 51.39C108.317 50.8113 108.163 50.1627 108.163 49.444C108.163 48.7627 108.313 48.1327 108.611 47.554C108.919 46.966 109.344 46.4993 109.885 46.154C110.427 45.8087 111.043 45.636 111.733 45.636C112.452 45.636 113.073 45.7947 113.595 46.112C114.127 46.4293 114.529 46.8633 114.799 47.414C115.079 47.9647 115.219 48.5853 115.219 49.276C115.219 49.4067 115.205 49.57 115.177 49.766H109.703C109.759 50.4287 109.993 50.942 110.403 51.306C110.823 51.6607 111.309 51.838 111.859 51.838C112.298 51.838 112.676 51.74 112.993 51.544C113.32 51.3387 113.581 51.0633 113.777 50.718L115.079 51.334C114.743 51.922 114.305 52.384 113.763 52.72C113.222 53.056 112.573 53.224 111.817 53.224ZM113.651 48.59C113.633 48.338 113.553 48.0907 113.413 47.848C113.273 47.596 113.059 47.386 112.769 47.218C112.489 47.05 112.144 46.966 111.733 46.966C111.239 46.966 110.819 47.1153 110.473 47.414C110.137 47.7033 109.904 48.0953 109.773 48.59H113.651ZM119.742 53.224C119.098 53.224 118.515 53.0607 117.992 52.734C117.469 52.4073 117.054 51.9593 116.746 51.39C116.447 50.8113 116.298 50.158 116.298 49.43C116.298 48.702 116.447 48.0533 116.746 47.484C117.054 46.9053 117.469 46.4527 117.992 46.126C118.515 45.7993 119.098 45.636 119.742 45.636C120.246 45.636 120.699 45.748 121.1 45.972C121.501 46.196 121.805 46.4713 122.01 46.798H122.08L122.01 45.79V42.976H123.55V53H122.08V52.076H122.01C121.805 52.3933 121.501 52.664 121.1 52.888C120.699 53.112 120.246 53.224 119.742 53.224ZM119.966 51.81C120.339 51.81 120.685 51.712 121.002 51.516C121.329 51.32 121.59 51.04 121.786 50.676C121.982 50.312 122.08 49.8967 122.08 49.43C122.08 48.9633 121.982 48.5527 121.786 48.198C121.59 47.834 121.329 47.554 121.002 47.358C120.685 47.162 120.339 47.064 119.966 47.064C119.593 47.064 119.243 47.162 118.916 47.358C118.589 47.554 118.328 47.834 118.132 48.198C117.936 48.5527 117.838 48.9633 117.838 49.43C117.838 49.8967 117.936 50.312 118.132 50.676C118.328 51.04 118.589 51.32 118.916 51.516C119.243 51.712 119.593 51.81 119.966 51.81ZM128.877 42.976H132.643C133.175 42.976 133.665 43.0927 134.113 43.326C134.571 43.5593 134.935 43.8813 135.205 44.292C135.476 44.7027 135.611 45.1553 135.611 45.65C135.611 46.1447 135.485 46.574 135.233 46.938C134.991 47.302 134.669 47.5773 134.267 47.764V47.848C134.771 48.0253 135.177 48.3193 135.485 48.73C135.803 49.1407 135.961 49.6213 135.961 50.172C135.961 50.7227 135.817 51.2127 135.527 51.642C135.247 52.0713 134.865 52.4073 134.379 52.65C133.903 52.8833 133.381 53 132.811 53H128.877V42.976ZM132.573 47.176C133.021 47.176 133.381 47.036 133.651 46.756C133.931 46.476 134.071 46.154 134.071 45.79C134.071 45.426 133.936 45.1087 133.665 44.838C133.404 44.558 133.059 44.418 132.629 44.418H130.445V47.176H132.573ZM132.811 51.544C133.287 51.544 133.665 51.3947 133.945 51.096C134.235 50.7973 134.379 50.452 134.379 50.06C134.379 49.6587 134.23 49.3133 133.931 49.024C133.642 48.7253 133.25 48.576 132.755 48.576H130.445V51.544H132.811ZM140.763 53.224C140.044 53.224 139.4 53.0607 138.831 52.734C138.261 52.398 137.818 51.9407 137.501 51.362C137.183 50.7833 137.025 50.1393 137.025 49.43C137.025 48.7207 137.183 48.0767 137.501 47.498C137.818 46.9193 138.261 46.4667 138.831 46.14C139.4 45.804 140.044 45.636 140.763 45.636C141.481 45.636 142.125 45.804 142.695 46.14C143.264 46.476 143.707 46.9333 144.025 47.512C144.342 48.0907 144.501 48.73 144.501 49.43C144.501 50.1393 144.342 50.7833 144.025 51.362C143.707 51.9407 143.264 52.398 142.695 52.734C142.125 53.0607 141.481 53.224 140.763 53.224ZM140.763 51.81C141.155 51.81 141.519 51.7167 141.855 51.53C142.191 51.334 142.457 51.0587 142.653 50.704C142.858 50.34 142.961 49.9153 142.961 49.43C142.961 48.9447 142.858 48.5247 142.653 48.17C142.457 47.8153 142.191 47.5447 141.855 47.358C141.519 47.162 141.155 47.064 140.763 47.064C140.371 47.064 140.007 47.162 139.671 47.358C139.335 47.5447 139.064 47.8153 138.859 48.17C138.663 48.5247 138.565 48.9447 138.565 49.43C138.565 49.9153 138.663 50.34 138.859 50.704C139.064 51.0587 139.335 51.334 139.671 51.53C140.007 51.7167 140.371 51.81 140.763 51.81ZM149.266 53.224C148.548 53.224 147.904 53.0607 147.334 52.734C146.765 52.398 146.322 51.9407 146.004 51.362C145.687 50.7833 145.528 50.1393 145.528 49.43C145.528 48.7207 145.687 48.0767 146.004 47.498C146.322 46.9193 146.765 46.4667 147.334 46.14C147.904 45.804 148.548 45.636 149.266 45.636C149.985 45.636 150.629 45.804 151.198 46.14C151.768 46.476 152.211 46.9333 152.528 47.512C152.846 48.0907 153.004 48.73 153.004 49.43C153.004 50.1393 152.846 50.7833 152.528 51.362C152.211 51.9407 151.768 52.398 151.198 52.734C150.629 53.0607 149.985 53.224 149.266 53.224ZM149.266 51.81C149.658 51.81 150.022 51.7167 150.358 51.53C150.694 51.334 150.96 51.0587 151.156 50.704C151.362 50.34 151.464 49.9153 151.464 49.43C151.464 48.9447 151.362 48.5247 151.156 48.17C150.96 47.8153 150.694 47.5447 150.358 47.358C150.022 47.162 149.658 47.064 149.266 47.064C148.874 47.064 148.51 47.162 148.174 47.358C147.838 47.5447 147.568 47.8153 147.362 48.17C147.166 48.5247 147.068 48.9447 147.068 49.43C147.068 49.9153 147.166 50.34 147.362 50.704C147.568 51.0587 147.838 51.334 148.174 51.53C148.51 51.7167 148.874 51.81 149.266 51.81ZM154.356 42.976H155.896V48.814H155.938L158.864 45.86H160.796V45.944L158.024 48.702L160.88 52.916V53H159.046L156.946 49.766L155.896 50.788V53H154.356V42.976ZM164.302 53.224C163.48 53.224 162.808 53.0467 162.286 52.692C161.763 52.328 161.394 51.866 161.18 51.306L162.552 50.704C162.72 51.0773 162.953 51.362 163.252 51.558C163.56 51.754 163.91 51.852 164.302 51.852C164.684 51.852 165.006 51.7867 165.268 51.656C165.529 51.516 165.66 51.3107 165.66 51.04C165.66 50.7787 165.548 50.5733 165.324 50.424C165.1 50.2747 164.754 50.144 164.288 50.032L163.434 49.822C162.864 49.682 162.393 49.4347 162.02 49.08C161.646 48.7253 161.46 48.2773 161.46 47.736C161.46 47.316 161.581 46.9473 161.824 46.63C162.076 46.3127 162.412 46.07 162.832 45.902C163.252 45.7247 163.709 45.636 164.204 45.636C164.866 45.636 165.45 45.7713 165.954 46.042C166.458 46.3033 166.822 46.686 167.046 47.19L165.702 47.778C165.431 47.2273 164.936 46.952 164.218 46.952C163.872 46.952 163.583 47.022 163.35 47.162C163.116 47.302 163 47.484 163 47.708C163 47.9227 163.088 48.1 163.266 48.24C163.443 48.3707 163.704 48.4827 164.05 48.576L165.1 48.842C165.8 49.0193 166.327 49.29 166.682 49.654C167.046 50.0087 167.228 50.4473 167.228 50.97C167.228 51.418 167.097 51.8147 166.836 52.16C166.584 52.496 166.234 52.7573 165.786 52.944C165.338 53.1307 164.843 53.224 164.302 53.224ZM169.527 53.084C169.228 53.084 168.972 52.9813 168.757 52.776C168.552 52.5613 168.449 52.3047 168.449 52.006C168.449 51.7073 168.552 51.4553 168.757 51.25C168.972 51.0447 169.228 50.942 169.527 50.942C169.826 50.942 170.078 51.0447 170.283 51.25C170.498 51.4553 170.605 51.7073 170.605 52.006C170.605 52.3047 170.498 52.5613 170.283 52.776C170.078 52.9813 169.826 53.084 169.527 53.084Z" fill="#163C57"/>
</svg>
